<svg xmlns="http://www.w3.org/2000/svg" viewBox="0 0 18 18" width="18" height="18">
	<defs>
		<clipPath clipPathUnits="userSpaceOnUse" id="cp1">
			<path d="M-128 -726L1272 -726L1272 1080L-128 1080Z" />
		</clipPath>
	</defs>
	<style>
		tspan { white-space:pre }
		.shp0 { fill: #657786 } 
		.shp1 { fill: none;stroke: #667580;stroke-linecap:round;stroke-linejoin:round;stroke-width: 1.5 } 
	</style>
	<g id="TWITTER PROFILE 2018" clip-path="url(#cp1)">
		<g id="Profile">
			<g id="Quick informations">
				<g id="Sign up">
					<g id="child">
						<path id="Oval" class="shp0" d="M6.45 11.91C7.06 11.91 7.55 11.42 7.55 10.82C7.55 10.22 7.06 9.73 6.45 9.73C5.85 9.73 5.36 10.22 5.36 10.82C5.36 11.42 5.85 11.91 6.45 11.91Z" />
						<path id="Oval" class="shp0" d="M11.55 11.91C12.15 11.91 12.64 11.42 12.64 10.82C12.64 10.22 12.15 9.73 11.55 9.73C10.94 9.73 10.45 10.22 10.45 10.82C10.45 11.42 10.94 11.91 11.55 11.91Z" />
						<path id="Shape" class="shp1" d="M17 9.73C17 8.65 16.21 7.75 15.18 7.58C14.29 5.02 11.86 3.18 9 3.18C6.14 3.18 3.71 5.02 2.82 7.58C1.79 7.75 1 8.65 1 9.73C1 10.81 1.79 11.7 2.82 11.87C3.71 14.43 6.14 16.27 9 16.27C11.86 16.27 14.29 14.43 15.18 11.87C16.21 11.7 17 10.81 17 9.73Z" />
						<path id="Shape" class="shp1" d="M9 5.36C8.82 2.76 10.21 1.15 12.64 1" />
					</g>
				</g>
			</g>
		</g>
	</g>
</svg>