<svg xmlns="http://www.w3.org/2000/svg" viewBox="0 0 18 18" width="18" height="18">
	<defs>
		<clipPath clipPathUnits="userSpaceOnUse" id="cp1">
			<path d="M-128 -925L1272 -925L1272 881L-128 881Z" />
		</clipPath>
	</defs>
	<style>
		tspan { white-space:pre }
		.shp0 { fill: none;stroke: #657786;stroke-linecap:round;stroke-linejoin:round;stroke-width: 1.5 } 
		.shp1 { fill: #657786 } 
	</style>
	<g id="TWITTER PROFILE 2018" clip-path="url(#cp1)">
		<g id="Profile">
			<g id="Followers">
				<g id="image-02">
					<path id="Shape" class="shp0" d="M1.5 13.5L5.5 9.5L8.5 12.5L12.5 7.5L16.5 11.5" />
					<path id="Shape" class="shp0" d="M15.5 16.5L2.5 16.5C1.95 16.5 1.5 16.05 1.5 15.5L1.5 2.5C1.5 1.95 1.95 1.5 2.5 1.5L15.5 1.5C16.05 1.5 16.5 1.95 16.5 2.5L16.5 15.5C16.5 16.05 16.05 16.5 15.5 16.5Z" />
					<path id="Oval" class="shp1" d="M7.5 7C8.33 7 9 6.33 9 5.5C9 4.67 8.33 4 7.5 4C6.67 4 6 4.67 6 5.5C6 6.33 6.67 7 7.5 7Z" />
				</g>
			</g>
		</g>
	</g>
</svg>