<svg xmlns="http://www.w3.org/2000/svg" viewBox="0 0 21 18" width="21" height="18">
	<defs>
		<clipPath clipPathUnits="userSpaceOnUse" id="cp1">
			<path d="M-695 -14L705 -14L705 1792L-695 1792Z" />
		</clipPath>
	</defs>
	<style>
		tspan { white-space:pre }
		.shp0 { fill: #55acee } 
	</style>
	<g id="TWITTER PROFILE 2018" clip-path="url(#cp1)">
		<g id="Header">
			<path id="Logo Twitter" class="shp0" d="M0.58 15.32C0.91 15.36 1.24 15.38 1.57 15.38C3.52 15.38 5.31 14.71 6.73 13.6C4.91 13.57 3.38 12.37 2.85 10.72C3.1 10.77 3.36 10.79 3.63 10.79C4.01 10.79 4.38 10.74 4.72 10.65C2.83 10.27 1.4 8.59 1.4 6.58C1.4 6.56 1.4 6.55 1.4 6.53C1.96 6.84 2.6 7.03 3.28 7.05C2.16 6.3 1.43 5.03 1.43 3.59C1.43 2.83 1.64 2.12 1.99 1.51C4.04 4.02 7.1 5.67 10.54 5.84C10.47 5.54 10.44 5.22 10.44 4.9C10.44 2.61 12.29 0.75 14.58 0.75C15.78 0.75 16.86 1.25 17.61 2.06C18.56 1.87 19.45 1.53 20.25 1.05C19.94 2.02 19.28 2.84 18.42 3.35C19.26 3.25 20.06 3.03 20.81 2.7C20.25 3.53 19.55 4.26 18.74 4.84C18.74 5.02 18.75 5.2 18.75 5.38C18.75 10.86 14.57 17.18 6.94 17.18C4.6 17.18 2.42 16.5 0.58 15.32Z" />
		</g>
	</g>
</svg>