<svg xmlns="http://www.w3.org/2000/svg" viewBox="0 0 18 16" width="18" height="16">
	<defs>
		<clipPath clipPathUnits="userSpaceOnUse" id="cp1">
			<path d="M-345 -16L1055 -16L1055 1790L-345 1790Z" />
		</clipPath>
	</defs>
	<style>
		tspan { white-space:pre }
		.shp0 { fill: #667580 } 
	</style>
	<g id="TWITTER PROFILE 2018" clip-path="url(#cp1)">
		<g id="Header">
			<g id="Left side">
				<g id="Discover">
					<g id="icon">
						<path id="Shape" class="shp0" d="M9 7.87L16.03 4.12C16.52 3.86 17.12 4.04 17.38 4.53C17.64 5.02 17.46 5.62 16.97 5.88L9.47 9.88C9.18 10.04 8.82 10.04 8.53 9.88L1.03 5.88C0.54 5.62 0.36 5.02 0.62 4.53C0.88 4.04 1.48 3.86 1.97 4.12L9 7.87Z" />
						<path id="Shape" fill-rule="evenodd" class="shp0" d="M2.5 13.5L2.5 2.5L15.5 2.5L15.5 13.5L2.5 13.5ZM17.5 13.5L17.5 2.5C17.5 1.4 16.6 0.5 15.5 0.5L2.5 0.5C1.4 0.5 0.5 1.4 0.5 2.5L0.5 13.5C0.5 14.6 1.4 15.5 2.5 15.5L15.5 15.5C16.6 15.5 17.5 14.6 17.5 13.5Z" />
					</g>
				</g>
			</g>
		</g>
	</g>
</svg>