<svg xmlns="http://www.w3.org/2000/svg" viewBox="0 0 6 18" width="6" height="18">
	<defs>
		<clipPath clipPathUnits="userSpaceOnUse" id="cp1">
			<path d="M-1283 -447L117 -447L117 1359L-1283 1359Z" />
		</clipPath>
	</defs>
	<style>
		tspan { white-space:pre }
		.shp0 { fill: none;stroke: #667580 } 
	</style>
	<g id="TWITTER PROFILE 2018" clip-path="url(#cp1)">
		<g id="Profile">
			<g id="Details Twitter">
				<g id="icon/more">
					<path id="Oval" class="shp0" d="M3 5C4.1 5 5 4.1 5 3C5 1.9 4.1 1 3 1C1.9 1 1 1.9 1 3C1 4.1 1.9 5 3 5Z" />
					<path id="Oval" class="shp0" d="M3 11C4.1 11 5 10.1 5 9C5 7.9 4.1 7 3 7C1.9 7 1 7.9 1 9C1 10.1 1.9 11 3 11Z" />
					<path id="Oval" class="shp0" d="M3 17C4.1 17 5 16.1 5 15C5 13.9 4.1 13 3 13C1.9 13 1 13.9 1 15C1 16.1 1.9 17 3 17Z" />
				</g>
			</g>
		</g>
	</g>
</svg>