<svg xmlns="http://www.w3.org/2000/svg" viewBox="0 0 16 20" width="16" height="20">
	<defs>
		<clipPath clipPathUnits="userSpaceOnUse" id="cp1">
			<path d="M-220 -13L1180 -13L1180 1793L-220 1793Z" />
		</clipPath>
	</defs>
	<style>
		tspan { white-space:pre }
		.shp0 { fill: #667580 } 
	</style>
	<g id="TWITTER PROFILE 2018" clip-path="url(#cp1)">
		<g id="Header">
			<g id="Left side">
				<g id="Notifications">
					<g id="ic_notifications_none_24px">
						<path id="Shape" fill-rule="evenodd" class="shp0" d="M6 18L10 18C10 19.1 9.1 20 8 20C6.9 20 6 19.1 6 18ZM16 16L16 17L0 17L0 16L2 14L2 9C2 5.92 3.64 3.36 6.5 2.68L6.5 2C6.5 1.17 7.17 0.5 8 0.5C8.83 0.5 9.5 1.17 9.5 2L9.5 2.68C12.37 3.36 14 5.93 14 9L14 14L16 16ZM12 9C12 6.52 10.49 4.5 8 4.5C5.51 4.5 4 6.52 4 9L4 15L12 15L12 9Z" />
					</g>
				</g>
			</g>
		</g>
	</g>
</svg>