<svg xmlns="http://www.w3.org/2000/svg" viewBox="0 0 15 16" width="15" height="16">
	<defs>
		<clipPath clipPathUnits="userSpaceOnUse" id="cp1">
			<path d="M-130 -678L1270 -678L1270 1128L-130 1128Z" />
		</clipPath>
	</defs>
	<style>
		tspan { white-space:pre }
		.shp0 { fill: #657786 } 
	</style>
	<g id="TWITTER PROFILE 2018" clip-path="url(#cp1)">
		<g id="Profile">
			<g id="Quick informations">
				<g id="Website">
					<path id="icon" class="shp0" d="M6.15 10.5L4.03 8.38C3.6 7.95 3.36 7.38 3.36 6.77C3.36 6.16 3.6 5.59 4.03 5.16L8.3 0.89C9.17 0.01 10.7 0.01 11.57 0.89L13.6 2.91C14.03 3.35 14.27 3.93 14.27 4.54C14.27 5.16 14.03 5.74 13.6 6.17L12.33 7.44L10.92 6.02L12.18 4.76C12.26 4.68 12.27 4.6 12.27 4.54C12.27 4.49 12.26 4.4 12.18 4.33L10.16 2.3C10 2.14 9.88 2.14 9.71 2.3L5.44 6.58C5.37 6.64 5.36 6.72 5.36 6.77C5.36 6.82 5.37 6.9 5.44 6.96L7.56 9.08L6.15 10.5M2.95 14.88L0.93 12.85C0.49 12.42 0.25 11.84 0.25 11.22C0.25 10.61 0.49 10.03 0.93 9.59L2.19 8.33L3.61 9.74L2.34 11.01C2.27 11.09 2.25 11.18 2.25 11.22C2.25 11.28 2.27 11.37 2.34 11.44L4.37 13.46C4.53 13.62 4.65 13.62 4.81 13.46L9.08 9.19C9.15 9.12 9.16 9.05 9.16 8.99C9.16 8.94 9.15 8.87 9.09 8.8L6.96 6.68L8.38 5.27L10.5 7.39C10.93 7.82 11.16 8.39 11.16 8.99C11.16 9.6 10.93 10.17 10.5 10.6L6.23 14.88C5.79 15.31 5.21 15.55 4.59 15.55C3.97 15.55 3.39 15.31 2.95 14.88Z" />
				</g>
			</g>
		</g>
	</g>
</svg>